# xmcd
#
# Track frame offsets:
#	150
#	13784
#	28215
#	41042
#	54905
#	67808
#	81656
#	94457
#	108922
#	122558
#	135757
#	147715
#	160581
#	174321
#	187377
#	200438
#	214199
#	227077
#	240201
#	253499
#	267661
#	282336
#	296219
#	309265
#	323689
#
# Disc length: 4512 seconds
#
# Revision: 2
# Processed by: cddbd v1.5.1PL0 Copyright (c) Steve Scherf et al.
# Submitted via: audiograbber 1.83.01
#
DISCID=79119e19
DTITLE=Various Artist - Legends of Country Blues - CD 1/5
DYEAR=1900
DGENRE=Blues
TTITLE0=Skip James - Devil Got My Woman
TTITLE1=Skip James - Cypress Groove Blues
TTITLE2=Skip James - Cherry Ball Blues
TTITLE3=Skip James - Illinois Blues
TTITLE4=Skip James - Four O'Clock Blues
TTITLE5=Skip James - Hard Luck Child
TTITLE6=Skip James - Hard Time Killin' Floor Blues
TTITLE7=Skip James - Yola My Blues Away
TTITLE8=Skip James - Jesus Is a Mighty Good Leader
TTITLE9=Skip James - Be Ready When He Comes
TTITLE10=Skip James - Drunken Spree
TTITLE11=Skip James - I'm So Glad
TTITLE12=Skip James - Special Rider Blues
TTITLE13=Skip James - How Long Buck
TTITLE14=Skip James - Little Cow and Calf Is Gonna Die Blues
TTITLE15=Skip James - What Am I To Do Blues
TTITLE16=Skip James - 22-20 Blues
TTITLE17=Skip James - If You Haven't Any Hay, Get Down On the Road
TTITLE18=Son House - Walkin' Blues
TTITLE19=Son House - My Black Mama (part 1)
TTITLE20=Son House - My Black Mama (part 2)
TTITLE21=Son House - Preachin' the Blues (part 1)
TTITLE22=Son House - Preachin' the Blues (part 2)
TTITLE23=Son House - Dry Spell Blues (part 1)
TTITLE24=Son House - Dry Spell Blues (part 2)
EXTD=JSP7715 - A
EXTT0=
EXTT1=
EXTT2=Misnamed on original CD as "Cherry Hall Blues"
EXTT3=
EXTT4=
EXTT5=
EXTT6=
EXTT7=
EXTT8=
EXTT9=
EXTT10=
EXTT11=
EXTT12=
EXTT13=
EXTT14=
EXTT15=
EXTT16=
EXTT17=
EXTT18=
EXTT19=
EXTT20=
EXTT21=
EXTT22=
EXTT23=
EXTT24=
PLAYORDER=
